<?xml version="1.0" encoding="utf-8"?>
<!-- Generator: Adobe Illustrator 15.0.2, SVG Export Plug-In . SVG Version: 6.00 Build 0)  -->
<!DOCTYPE svg PUBLIC "-//W3C//DTD SVG 1.1//EN" "http://www.w3.org/Graphics/SVG/1.1/DTD/svg11.dtd">
<svg version="1.1" id="Layer_1" xmlns="http://www.w3.org/2000/svg" xmlns:xlink="http://www.w3.org/1999/xlink" x="0px" y="0px"
	 width="512px" height="431.164px" viewBox="0 0 512 431.164" enable-background="new 0 0 512 431.164" xml:space="preserve">
<path d="M121.263,0h269.475C457.711,0,512,135.138,512,202.112v26.947c0,66.974-54.289,202.104-121.263,202.104H121.263
	C54.289,431.164,0,296.033,0,229.06v-26.947C0,135.138,54.289,0,121.263,0z M154.947,107.796c-11.164,0-20.21,9.053-20.21,20.211
	v94.315c0,11.158,9.046,20.211,20.21,20.211c11.165,0,20.211-9.053,20.211-20.211v-94.315
	C175.158,116.849,166.112,107.796,154.947,107.796z M357.053,121.27c-11.158,0-20.211,9.053-20.211,20.211v80.842
	c0,11.158,9.053,20.211,20.211,20.211s20.21-9.053,20.21-20.211V141.48C377.263,130.322,368.211,121.27,357.053,121.27z
	 M262.737,296.428h-13.475c-26.046,0-47.157,27.842-47.157,53.895v13.474c0,14.882,12.065,26.947,26.947,26.947h53.895
	c14.882,0,26.947-12.065,26.947-26.947v-13.474C309.895,324.27,288.789,296.428,262.737,296.428z"/>
</svg>
